<svg xmlns="http://www.w3.org/2000/svg" xmlns:xlink="http://www.w3.org/1999/xlink" width="2000" zoomAndPan="magnify" viewBox="0 0 1500 1499.999933" height="2000" preserveAspectRatio="xMidYMid meet" version="1.0"><defs><g/><clipPath id="4ab663bbdd"><path d="M 316.574219 318.953125 L 1183.574219 318.953125 L 1183.574219 1185.953125 L 316.574219 1185.953125 Z M 316.574219 318.953125 " clip-rule="nonzero"/></clipPath><clipPath id="d22fcdb155"><path d="M 588.714844 742.972656 L 607.464844 742.972656 L 607.464844 761.722656 L 588.714844 761.722656 Z M 588.714844 742.972656 " clip-rule="nonzero"/></clipPath><clipPath id="ef6ee6c69f"><path d="M 1049.828125 740.59375 L 1068.578125 740.59375 L 1068.578125 759.34375 L 1049.828125 759.34375 Z M 1049.828125 740.59375 " clip-rule="nonzero"/></clipPath><clipPath id="1715d74798"><path d="M 828.675781 742.972656 L 847.425781 742.972656 L 847.425781 761.722656 L 828.675781 761.722656 Z M 828.675781 742.972656 " clip-rule="nonzero"/></clipPath><clipPath id="05a5cdee22"><path d="M 313 433 L 600 433 L 600 1060 L 313 1060 Z M 313 433 " clip-rule="nonzero"/></clipPath><clipPath id="f2ca0da0a8"><path d="M 412.285156 372.425781 L 721.652344 473.628906 L 529.277344 1061.710938 L 219.910156 960.511719 Z M 412.285156 372.425781 " clip-rule="nonzero"/></clipPath><clipPath id="1afb83efad"><path d="M 412.285156 372.425781 L 721.652344 473.628906 L 529.277344 1061.710938 L 219.910156 960.511719 Z M 412.285156 372.425781 " clip-rule="nonzero"/></clipPath></defs><g clip-path="url(#4ab663bbdd)"><path fill="#f8f6f2" d="M 1183.421875 752.375 C 1183.421875 759.46875 1183.25 766.558594 1182.902344 773.644531 C 1182.550781 780.730469 1182.03125 787.800781 1181.335938 794.859375 C 1180.640625 801.917969 1179.773438 808.957031 1178.730469 815.972656 C 1177.691406 822.988281 1176.476562 829.976562 1175.09375 836.933594 C 1173.710938 843.890625 1172.15625 850.808594 1170.433594 857.691406 C 1168.710938 864.570312 1166.820312 871.40625 1164.757812 878.191406 C 1162.699219 884.980469 1160.476562 891.714844 1158.085938 898.394531 C 1155.695312 905.070312 1153.144531 911.6875 1150.429688 918.242188 C 1147.714844 924.792969 1144.84375 931.277344 1141.808594 937.6875 C 1138.777344 944.101562 1135.589844 950.4375 1132.246094 956.691406 C 1128.902344 962.945312 1125.40625 969.117188 1121.757812 975.199219 C 1118.113281 981.285156 1114.320312 987.277344 1110.378906 993.175781 C 1106.4375 999.070312 1102.355469 1004.871094 1098.128906 1010.566406 C 1093.902344 1016.265625 1089.539062 1021.855469 1085.039062 1027.335938 C 1080.539062 1032.820312 1075.910156 1038.191406 1071.144531 1043.445312 C 1066.382812 1048.703125 1061.492188 1053.835938 1056.476562 1058.855469 C 1051.460938 1063.871094 1046.324219 1068.757812 1041.070312 1073.523438 C 1035.8125 1078.285156 1030.441406 1082.917969 1024.960938 1087.417969 C 1019.476562 1091.917969 1013.886719 1096.28125 1008.1875 1100.507812 C 1002.492188 1104.730469 996.695312 1108.816406 990.796875 1112.753906 C 984.898438 1116.695312 978.90625 1120.488281 972.824219 1124.136719 C 966.738281 1127.785156 960.570312 1131.277344 954.3125 1134.621094 C 948.058594 1137.964844 941.722656 1141.15625 935.3125 1144.1875 C 928.898438 1147.21875 922.417969 1150.09375 915.863281 1152.808594 C 909.308594 1155.523438 902.695312 1158.074219 896.015625 1160.464844 C 889.335938 1162.855469 882.601562 1165.078125 875.816406 1167.136719 C 869.027344 1169.195312 862.191406 1171.085938 855.3125 1172.8125 C 848.429688 1174.535156 841.511719 1176.089844 834.554688 1177.472656 C 827.597656 1178.855469 820.613281 1180.070312 813.59375 1181.109375 C 806.578125 1182.148438 799.542969 1183.019531 792.480469 1183.714844 C 785.421875 1184.410156 778.351562 1184.929688 771.265625 1185.277344 C 764.179688 1185.625 757.09375 1185.800781 750 1185.800781 C 742.90625 1185.800781 735.816406 1185.625 728.730469 1185.277344 C 721.648438 1184.929688 714.574219 1184.410156 707.515625 1183.714844 C 700.457031 1183.019531 693.417969 1182.148438 686.402344 1181.109375 C 679.386719 1180.070312 672.398438 1178.855469 665.441406 1177.472656 C 658.484375 1176.089844 651.566406 1174.535156 644.6875 1172.8125 C 637.804688 1171.085938 630.96875 1169.195312 624.183594 1167.136719 C 617.394531 1165.078125 610.660156 1162.855469 603.984375 1160.464844 C 597.304688 1158.074219 590.6875 1155.523438 584.136719 1152.808594 C 577.582031 1150.09375 571.097656 1147.21875 564.6875 1144.1875 C 558.273438 1141.15625 551.941406 1137.964844 545.683594 1134.621094 C 539.429688 1131.277344 533.257812 1127.785156 527.175781 1124.136719 C 521.089844 1120.488281 515.097656 1116.695312 509.203125 1112.753906 C 503.304688 1108.816406 497.507812 1104.730469 491.808594 1100.507812 C 486.113281 1096.28125 480.519531 1091.917969 475.039062 1087.417969 C 469.554688 1082.917969 464.183594 1078.285156 458.929688 1073.523438 C 453.671875 1068.757812 448.539062 1063.871094 443.523438 1058.855469 C 438.507812 1053.835938 433.617188 1048.703125 428.851562 1043.445312 C 424.089844 1038.191406 419.457031 1032.820312 414.957031 1027.335938 C 410.457031 1021.855469 406.09375 1016.265625 401.871094 1010.566406 C 397.644531 1004.871094 393.5625 999.070312 389.621094 993.175781 C 385.679688 987.277344 381.886719 981.285156 378.238281 975.199219 C 374.59375 969.117188 371.097656 962.945312 367.753906 956.691406 C 364.410156 950.433594 361.222656 944.101562 358.1875 937.6875 C 355.15625 931.277344 352.28125 924.792969 349.566406 918.242188 C 346.851562 911.6875 344.300781 905.070312 341.910156 898.394531 C 339.523438 891.714844 337.296875 884.980469 335.238281 878.191406 C 333.179688 871.40625 331.289062 864.570312 329.5625 857.691406 C 327.839844 850.808594 326.289062 843.890625 324.902344 836.933594 C 323.519531 829.976562 322.308594 822.988281 321.265625 815.972656 C 320.226562 808.957031 319.359375 801.917969 318.664062 794.859375 C 317.96875 787.800781 317.445312 780.730469 317.097656 773.644531 C 316.75 766.558594 316.574219 759.46875 316.574219 752.375 C 316.574219 745.285156 316.75 738.195312 317.097656 731.109375 C 317.445312 724.023438 317.96875 716.953125 318.664062 709.894531 C 319.359375 702.835938 320.226562 695.796875 321.265625 688.78125 C 322.308594 681.765625 323.519531 674.777344 324.902344 667.820312 C 326.289062 660.863281 327.839844 653.945312 329.5625 647.0625 C 331.289062 640.183594 333.179688 633.347656 335.238281 626.558594 C 337.296875 619.773438 339.523438 613.039062 341.910156 606.359375 C 344.300781 599.683594 346.851562 593.066406 349.566406 586.511719 C 352.28125 579.960938 355.15625 573.476562 358.1875 567.0625 C 361.222656 560.652344 364.410156 554.316406 367.753906 548.0625 C 371.097656 541.804688 374.59375 535.636719 378.238281 529.550781 C 381.886719 523.46875 385.679688 517.476562 389.621094 511.578125 C 393.5625 505.679688 397.644531 499.882812 401.871094 494.1875 C 406.09375 488.488281 410.457031 482.898438 414.957031 477.414062 C 419.457031 471.933594 424.089844 466.5625 428.851562 461.308594 C 433.617188 456.050781 438.507812 450.914062 443.523438 445.898438 C 448.539062 440.882812 453.671875 435.996094 458.929688 431.230469 C 464.183594 426.46875 469.554688 421.835938 475.039062 417.335938 C 480.519531 412.835938 486.113281 408.472656 491.808594 404.246094 C 497.507812 400.023438 503.304688 395.9375 509.203125 392 C 515.097656 388.058594 521.089844 384.261719 527.175781 380.617188 C 533.257812 376.96875 539.429688 373.476562 545.683594 370.132812 C 551.941406 366.789062 558.273438 363.597656 564.6875 360.566406 C 571.097656 357.535156 577.582031 354.660156 584.136719 351.945312 C 590.6875 349.230469 597.304688 346.679688 603.984375 344.289062 C 610.660156 341.898438 617.394531 339.675781 624.183594 337.617188 C 630.96875 335.558594 637.804688 333.664062 644.6875 331.941406 C 651.566406 330.21875 658.484375 328.664062 665.441406 327.28125 C 672.398438 325.898438 679.386719 324.683594 686.402344 323.644531 C 693.417969 322.601562 700.457031 321.734375 707.515625 321.039062 C 714.574219 320.34375 721.648438 319.824219 728.730469 319.476562 C 735.816406 319.128906 742.90625 318.953125 750 318.953125 C 757.09375 318.953125 764.179688 319.128906 771.265625 319.476562 C 778.351562 319.824219 785.421875 320.34375 792.480469 321.039062 C 799.542969 321.734375 806.578125 322.601562 813.59375 323.644531 C 820.613281 324.683594 827.597656 325.898438 834.554688 327.28125 C 841.511719 328.664062 848.429688 330.21875 855.3125 331.941406 C 862.191406 333.664062 869.027344 335.558594 875.816406 337.617188 C 882.601562 339.675781 889.335938 341.898438 896.015625 344.289062 C 902.695312 346.679688 909.308594 349.230469 915.863281 351.945312 C 922.417969 354.660156 928.898438 357.535156 935.3125 360.566406 C 941.722656 363.597656 948.058594 366.789062 954.3125 370.132812 C 960.570312 373.476562 966.738281 376.96875 972.824219 380.617188 C 978.90625 384.261719 984.898438 388.058594 990.796875 392 C 996.695312 395.9375 1002.492188 400.023438 1008.1875 404.246094 C 1013.886719 408.472656 1019.476562 412.835938 1024.960938 417.335938 C 1030.441406 421.835938 1035.8125 426.46875 1041.070312 431.230469 C 1046.324219 435.996094 1051.460938 440.882812 1056.476562 445.898438 C 1061.492188 450.914062 1066.382812 456.050781 1071.144531 461.308594 C 1075.910156 466.5625 1080.539062 471.933594 1085.039062 477.414062 C 1089.539062 482.898438 1093.902344 488.488281 1098.128906 494.1875 C 1102.355469 499.882812 1106.4375 505.679688 1110.378906 511.578125 C 1114.320312 517.476562 1118.113281 523.46875 1121.757812 529.550781 C 1125.40625 535.636719 1128.902344 541.804688 1132.246094 548.0625 C 1135.589844 554.316406 1138.777344 560.652344 1141.808594 567.0625 C 1144.84375 573.476562 1147.714844 579.960938 1150.429688 586.511719 C 1153.144531 593.066406 1155.695312 599.683594 1158.085938 606.359375 C 1160.476562 613.039062 1162.699219 619.773438 1164.757812 626.558594 C 1166.820312 633.347656 1168.710938 640.183594 1170.433594 647.0625 C 1172.15625 653.945312 1173.710938 660.863281 1175.09375 667.820312 C 1176.476562 674.777344 1177.691406 681.765625 1178.730469 688.78125 C 1179.773438 695.796875 1180.640625 702.835938 1181.335938 709.894531 C 1182.03125 716.953125 1182.550781 724.023438 1182.902344 731.109375 C 1183.25 738.195312 1183.421875 745.285156 1183.421875 752.375 Z M 1183.421875 752.375 " fill-opacity="1" fill-rule="nonzero"/></g><path fill="#6d3142" d="M 750 1144.460938 C 533.609375 1144.460938 357.914062 968.765625 357.914062 752.375 C 357.914062 535.988281 533.609375 360.292969 750 360.292969 C 966.386719 360.292969 1142.082031 535.988281 1142.082031 752.375 C 1142.082031 968.765625 966.386719 1144.460938 750 1144.460938 Z M 750 369.980469 C 538.777344 369.980469 367.605469 541.15625 367.605469 752.375 C 367.605469 963.597656 539.421875 1134.773438 750 1134.773438 C 961.21875 1134.773438 1132.394531 962.953125 1132.394531 752.375 C 1132.394531 541.15625 961.21875 369.980469 750 369.980469 Z M 750 369.980469 " fill-opacity="1" fill-rule="nonzero"/><g clip-path="url(#d22fcdb155)"><path fill="#6d3142" d="M 598.117188 742.972656 C 597.5 742.972656 596.890625 743.035156 596.285156 743.152344 C 595.679688 743.273438 595.089844 743.453125 594.519531 743.6875 C 593.949219 743.925781 593.40625 744.214844 592.894531 744.558594 C 592.378906 744.902344 591.90625 745.292969 591.46875 745.726562 C 591.03125 746.164062 590.644531 746.640625 590.300781 747.152344 C 589.957031 747.667969 589.667969 748.207031 589.429688 748.777344 C 589.195312 749.347656 589.015625 749.9375 588.894531 750.542969 C 588.773438 751.148438 588.714844 751.761719 588.714844 752.378906 C 588.714844 752.996094 588.773438 753.605469 588.894531 754.210938 C 589.015625 754.816406 589.195312 755.40625 589.429688 755.976562 C 589.667969 756.546875 589.957031 757.089844 590.300781 757.601562 C 590.644531 758.117188 591.03125 758.589844 591.46875 759.027344 C 591.90625 759.464844 592.378906 759.855469 592.894531 760.195312 C 593.40625 760.539062 593.949219 760.828125 594.519531 761.066406 C 595.089844 761.300781 595.679688 761.480469 596.285156 761.601562 C 596.890625 761.722656 597.5 761.78125 598.117188 761.78125 C 598.738281 761.78125 599.347656 761.722656 599.953125 761.601562 C 600.558594 761.480469 601.148438 761.300781 601.71875 761.066406 C 602.289062 760.828125 602.832031 760.539062 603.34375 760.195312 C 603.855469 759.855469 604.332031 759.464844 604.769531 759.027344 C 605.207031 758.589844 605.59375 758.117188 605.9375 757.601562 C 606.28125 757.089844 606.570312 756.546875 606.808594 755.976562 C 607.042969 755.40625 607.222656 754.816406 607.34375 754.210938 C 607.464844 753.605469 607.523438 752.996094 607.523438 752.378906 C 607.523438 751.761719 607.464844 751.148438 607.34375 750.542969 C 607.222656 749.9375 607.042969 749.347656 606.808594 748.777344 C 606.570312 748.207031 606.28125 747.667969 605.9375 747.152344 C 605.59375 746.640625 605.207031 746.164062 604.769531 745.726562 C 604.332031 745.292969 603.855469 744.902344 603.34375 744.558594 C 602.832031 744.214844 602.289062 743.925781 601.71875 743.6875 C 601.148438 743.453125 600.558594 743.273438 599.953125 743.152344 C 599.347656 743.035156 598.738281 742.972656 598.117188 742.972656 Z M 598.117188 742.972656 " fill-opacity="1" fill-rule="nonzero"/></g><g fill="#6d3142" fill-opacity="1"><g transform="translate(431.361332, 816.37491)"><g><path d="M 148.1875 -2.546875 C 148.75 -2.546875 149.03125 -2.117188 149.03125 -1.265625 C 149.03125 -0.421875 148.75 0 148.1875 0 C 145.5 0 141.332031 -0.140625 135.6875 -0.421875 C 130.03125 -0.703125 125.929688 -0.84375 123.390625 -0.84375 C 120.273438 -0.84375 116.316406 -0.703125 111.515625 -0.421875 C 106.992188 -0.140625 103.53125 0 101.125 0 C 100.5625 0 100.28125 -0.421875 100.28125 -1.265625 C 100.28125 -2.117188 100.5625 -2.546875 101.125 -2.546875 C 106.351562 -2.546875 110.164062 -3.039062 112.5625 -4.03125 C 114.96875 -5.019531 116.171875 -6.710938 116.171875 -9.109375 C 116.171875 -11.085938 115.253906 -14.128906 113.421875 -18.234375 L 94.546875 -58.296875 L 44.09375 -58.296875 L 30.734375 -26.921875 C 28.753906 -22.117188 27.765625 -18.234375 27.765625 -15.265625 C 27.765625 -10.878906 29.492188 -7.660156 32.953125 -5.609375 C 36.421875 -3.566406 41.617188 -2.546875 48.546875 -2.546875 C 49.253906 -2.546875 49.609375 -2.117188 49.609375 -1.265625 C 49.609375 -0.421875 49.253906 0 48.546875 0 C 46.003906 0 42.332031 -0.140625 37.53125 -0.421875 C 32.15625 -0.703125 27.488281 -0.84375 23.53125 -0.84375 C 19.851562 -0.84375 15.613281 -0.703125 10.8125 -0.421875 C 6.570312 -0.140625 3.039062 0 0.21875 0 C -0.488281 0 -0.84375 -0.421875 -0.84375 -1.265625 C -0.84375 -2.117188 -0.488281 -2.546875 0.21875 -2.546875 C 4.164062 -2.546875 7.519531 -3.285156 10.28125 -4.765625 C 13.039062 -6.253906 15.65625 -8.867188 18.125 -12.609375 C 20.601562 -16.359375 23.320312 -21.765625 26.28125 -28.828125 L 71.015625 -134.40625 C 71.296875 -134.832031 71.789062 -135.046875 72.5 -135.046875 C 73.207031 -135.046875 73.632812 -134.832031 73.78125 -134.40625 L 123.8125 -29.046875 C 128.613281 -18.585938 132.707031 -11.554688 136.09375 -7.953125 C 139.488281 -4.347656 143.519531 -2.546875 148.1875 -2.546875 Z M 45.796875 -62.546875 L 92.640625 -62.546875 L 67.84375 -114.90625 Z M 45.796875 -62.546875 "/></g></g></g><g fill="#6d3142" fill-opacity="1"><g transform="translate(580.181539, 816.37491)"><g/></g></g><g fill="#6d3142" fill-opacity="1"><g transform="translate(629.788251, 816.37491)"><g><path d="M 172.140625 -2.546875 C 172.566406 -2.546875 172.78125 -2.117188 172.78125 -1.265625 C 172.78125 -0.421875 172.566406 0 172.140625 0 C 167.765625 0 164.300781 -0.0703125 161.75 -0.21875 L 147.125 -0.421875 L 133.5625 -0.21875 C 131.300781 -0.0703125 128.117188 0 124.015625 0 C 123.734375 0 123.59375 -0.421875 123.59375 -1.265625 C 123.59375 -2.117188 123.734375 -2.546875 124.015625 -2.546875 C 128.828125 -2.546875 132.394531 -2.929688 134.71875 -3.703125 C 137.050781 -4.484375 138.609375 -5.863281 139.390625 -7.84375 C 140.171875 -9.820312 140.414062 -12.929688 140.125 -17.171875 L 136.3125 -113.625 L 87.984375 -1.484375 C 87.703125 -0.921875 87.132812 -0.640625 86.28125 -0.640625 C 85.570312 -0.640625 84.9375 -0.921875 84.375 -1.484375 L 32.21875 -112.359375 L 30.3125 -23.109375 C 30.175781 -15.617188 31.445312 -10.316406 34.125 -7.203125 C 36.8125 -4.097656 41.550781 -2.546875 48.34375 -2.546875 C 48.625 -2.546875 48.765625 -2.117188 48.765625 -1.265625 C 48.765625 -0.421875 48.625 0 48.34375 0 C 44.382812 0 41.34375 -0.0703125 39.21875 -0.21875 L 27.765625 -0.421875 L 16.75 -0.21875 C 14.769531 -0.0703125 11.941406 0 8.265625 0 C 7.984375 0 7.84375 -0.421875 7.84375 -1.265625 C 7.84375 -2.117188 7.984375 -2.546875 8.265625 -2.546875 C 14.203125 -2.546875 18.476562 -4.132812 21.09375 -7.3125 C 23.707031 -10.488281 25.085938 -15.753906 25.234375 -23.109375 L 27.140625 -121.46875 C 22.898438 -127.125 17.101562 -129.953125 9.75 -129.953125 C 9.46875 -129.953125 9.328125 -130.375 9.328125 -131.21875 C 9.328125 -132.070312 9.46875 -132.5 9.75 -132.5 L 17.59375 -132.28125 C 19.007812 -132.144531 20.988281 -132.078125 23.53125 -132.078125 C 26.070312 -132.078125 28.222656 -132.144531 29.984375 -132.28125 C 31.753906 -132.425781 33.132812 -132.5 34.125 -132.5 C 35.96875 -132.5 37.488281 -131.828125 38.6875 -130.484375 C 39.882812 -129.140625 41.617188 -126.132812 43.890625 -121.46875 L 91.15625 -21.84375 L 137.375 -127.203125 C 138.925781 -130.734375 141.046875 -132.5 143.734375 -132.5 C 144.441406 -132.5 145.46875 -132.425781 146.8125 -132.28125 C 148.15625 -132.144531 149.957031 -132.078125 152.21875 -132.078125 L 162.1875 -132.28125 C 163.738281 -132.425781 166.066406 -132.5 169.171875 -132.5 C 169.597656 -132.5 169.8125 -132.070312 169.8125 -131.21875 C 169.8125 -130.375 169.597656 -129.953125 169.171875 -129.953125 C 162.109375 -129.953125 157.054688 -128.925781 154.015625 -126.875 C 150.972656 -124.832031 149.523438 -120.984375 149.671875 -115.328125 L 153.90625 -17.171875 C 154.050781 -12.785156 154.582031 -9.601562 155.5 -7.625 C 156.414062 -5.644531 158.078125 -4.300781 160.484375 -3.59375 C 162.890625 -2.894531 166.773438 -2.546875 172.140625 -2.546875 Z M 172.140625 -2.546875 "/></g></g></g><g fill="#6d3142" fill-opacity="1"><g transform="translate(807.015741, 816.37491)"><g/></g></g><g fill="#6d3142" fill-opacity="1"><g transform="translate(856.622464, 816.37491)"><g><path d="M 158.15625 34.125 C 158.4375 34.125 158.679688 34.441406 158.890625 35.078125 C 159.109375 35.722656 159.070312 36.113281 158.78125 36.25 C 151.570312 37.945312 145.566406 38.796875 140.765625 38.796875 C 131.015625 38.796875 120.734375 35.578125 109.921875 29.140625 C 99.109375 22.710938 89.742188 13.773438 81.828125 2.328125 C 80.835938 2.472656 79.425781 2.546875 77.59375 2.546875 C 64.445312 2.546875 52.75 -0.523438 42.5 -6.671875 C 32.257812 -12.828125 24.347656 -21.164062 18.765625 -31.6875 C 13.179688 -42.21875 10.390625 -53.703125 10.390625 -66.140625 C 10.390625 -80.703125 14.0625 -93.175781 21.40625 -103.5625 C 28.757812 -113.945312 38.191406 -121.753906 49.703125 -126.984375 C 61.222656 -132.210938 72.992188 -134.828125 85.015625 -134.828125 C 98.441406 -134.828125 110.242188 -131.679688 120.421875 -125.390625 C 130.597656 -119.109375 138.40625 -110.804688 143.84375 -100.484375 C 149.28125 -90.171875 152 -79.21875 152 -67.625 C 152 -57.164062 149.703125 -47.304688 145.109375 -38.046875 C 140.515625 -28.796875 134.191406 -20.914062 126.140625 -14.40625 C 118.085938 -7.90625 108.972656 -3.242188 98.796875 -0.421875 C 104.734375 9.753906 112.609375 18.160156 122.421875 24.796875 C 132.242188 31.441406 141.539062 34.765625 150.3125 34.765625 C 153.5625 34.765625 156.101562 34.550781 157.9375 34.125 Z M 26.5 -73.5625 C 26.5 -60.28125 28.972656 -48.160156 33.921875 -37.203125 C 38.867188 -26.253906 45.789062 -17.632812 54.6875 -11.34375 C 63.59375 -5.050781 73.703125 -1.90625 85.015625 -1.90625 C 94.617188 -1.90625 103.269531 -4.238281 110.96875 -8.90625 C 118.675781 -13.570312 124.753906 -20.425781 129.203125 -29.46875 C 133.660156 -38.507812 135.890625 -49.25 135.890625 -61.6875 C 135.890625 -74.976562 133.414062 -86.78125 128.46875 -97.09375 C 123.519531 -107.414062 116.554688 -115.472656 107.578125 -121.265625 C 98.609375 -127.054688 88.117188 -129.953125 76.109375 -129.953125 C 60.554688 -129.953125 48.398438 -124.9375 39.640625 -114.90625 C 30.878906 -104.875 26.5 -91.09375 26.5 -73.5625 Z M 26.5 -73.5625 "/></g></g></g><g fill="#6d3142" fill-opacity="1"><g transform="translate(1019.021442, 816.37491)"><g/></g></g><g clip-path="url(#ef6ee6c69f)"><path fill="#6d3142" d="M 1059.234375 740.59375 C 1058.617188 740.59375 1058.003906 740.65625 1057.398438 740.777344 C 1056.792969 740.898438 1056.207031 741.074219 1055.636719 741.3125 C 1055.066406 741.546875 1054.523438 741.835938 1054.007812 742.179688 C 1053.496094 742.523438 1053.019531 742.914062 1052.585938 743.351562 C 1052.148438 743.785156 1051.757812 744.261719 1051.414062 744.773438 C 1051.070312 745.289062 1050.78125 745.832031 1050.546875 746.402344 C 1050.308594 746.972656 1050.132812 747.558594 1050.011719 748.164062 C 1049.890625 748.769531 1049.828125 749.382812 1049.828125 750 C 1049.828125 750.617188 1049.890625 751.230469 1050.011719 751.835938 C 1050.132812 752.441406 1050.308594 753.027344 1050.546875 753.597656 C 1050.78125 754.167969 1051.070312 754.710938 1051.414062 755.222656 C 1051.757812 755.738281 1052.148438 756.214844 1052.585938 756.648438 C 1053.019531 757.085938 1053.496094 757.476562 1054.007812 757.820312 C 1054.523438 758.164062 1055.066406 758.453125 1055.636719 758.6875 C 1056.207031 758.925781 1056.792969 759.101562 1057.398438 759.222656 C 1058.003906 759.34375 1058.617188 759.402344 1059.234375 759.402344 C 1059.851562 759.402344 1060.464844 759.34375 1061.070312 759.222656 C 1061.675781 759.101562 1062.261719 758.925781 1062.832031 758.6875 C 1063.402344 758.453125 1063.945312 758.164062 1064.457031 757.820312 C 1064.972656 757.476562 1065.449219 757.085938 1065.882812 756.648438 C 1066.320312 756.214844 1066.710938 755.738281 1067.054688 755.222656 C 1067.398438 754.710938 1067.6875 754.167969 1067.921875 753.597656 C 1068.160156 753.027344 1068.335938 752.441406 1068.457031 751.835938 C 1068.578125 751.230469 1068.636719 750.617188 1068.636719 750 C 1068.636719 749.382812 1068.578125 748.769531 1068.457031 748.164062 C 1068.335938 747.558594 1068.160156 746.972656 1067.921875 746.402344 C 1067.6875 745.832031 1067.398438 745.289062 1067.054688 744.773438 C 1066.710938 744.261719 1066.320312 743.785156 1065.882812 743.351562 C 1065.449219 742.914062 1064.972656 742.523438 1064.457031 742.179688 C 1063.945312 741.835938 1063.402344 741.546875 1062.832031 741.3125 C 1062.261719 741.074219 1061.675781 740.898438 1061.070312 740.777344 C 1060.464844 740.65625 1059.851562 740.59375 1059.234375 740.59375 Z M 1059.234375 740.59375 " fill-opacity="1" fill-rule="nonzero"/></g><g clip-path="url(#1715d74798)"><path fill="#6d3142" d="M 838.082031 742.972656 C 837.464844 742.972656 836.851562 743.035156 836.246094 743.152344 C 835.640625 743.273438 835.050781 743.453125 834.480469 743.6875 C 833.910156 743.925781 833.371094 744.214844 832.855469 744.558594 C 832.34375 744.902344 831.867188 745.292969 831.429688 745.726562 C 830.996094 746.164062 830.605469 746.640625 830.261719 747.152344 C 829.917969 747.667969 829.628906 748.207031 829.390625 748.777344 C 829.15625 749.347656 828.976562 749.9375 828.855469 750.542969 C 828.738281 751.148438 828.675781 751.761719 828.675781 752.378906 C 828.675781 752.996094 828.738281 753.605469 828.855469 754.210938 C 828.976562 754.816406 829.15625 755.40625 829.390625 755.976562 C 829.628906 756.546875 829.917969 757.089844 830.261719 757.601562 C 830.605469 758.117188 830.996094 758.589844 831.429688 759.027344 C 831.867188 759.464844 832.34375 759.855469 832.855469 760.195312 C 833.371094 760.539062 833.910156 760.828125 834.480469 761.066406 C 835.050781 761.300781 835.640625 761.480469 836.246094 761.601562 C 836.851562 761.722656 837.464844 761.78125 838.082031 761.78125 C 838.699219 761.78125 839.308594 761.722656 839.914062 761.601562 C 840.519531 761.480469 841.109375 761.300781 841.679688 761.066406 C 842.25 760.828125 842.792969 760.539062 843.304688 760.195312 C 843.820312 759.855469 844.292969 759.464844 844.730469 759.027344 C 845.167969 758.589844 845.558594 758.117188 845.898438 757.601562 C 846.242188 757.089844 846.53125 756.546875 846.769531 755.976562 C 847.003906 755.40625 847.183594 754.816406 847.304688 754.210938 C 847.425781 753.605469 847.484375 752.996094 847.484375 752.378906 C 847.484375 751.761719 847.425781 751.148438 847.304688 750.542969 C 847.183594 749.9375 847.003906 749.347656 846.769531 748.777344 C 846.53125 748.207031 846.242188 747.667969 845.898438 747.152344 C 845.558594 746.640625 845.167969 746.164062 844.730469 745.726562 C 844.292969 745.292969 843.820312 744.902344 843.304688 744.558594 C 842.792969 744.214844 842.25 743.925781 841.679688 743.6875 C 841.109375 743.453125 840.519531 743.273438 839.914062 743.152344 C 839.308594 743.035156 838.699219 742.972656 838.082031 742.972656 Z M 838.082031 742.972656 " fill-opacity="1" fill-rule="nonzero"/></g><g clip-path="url(#05a5cdee22)"><g clip-path="url(#f2ca0da0a8)"><g clip-path="url(#1afb83efad)"><path fill="#6d3142" d="M 528.277344 1056.484375 C 508.503906 1045.566406 490.457031 1032.054688 474.117188 1016.652344 C 474.152344 1016.613281 474.183594 1016.570312 474.21875 1016.53125 C 475.421875 1016.597656 476.660156 1015.515625 476.101562 1014.199219 C 497.496094 986.605469 498.261719 948.21875 477.503906 919.726562 C 476.792969 918.75 475.257812 919.042969 474.640625 919.929688 C 455.664062 947.199219 456.097656 985.109375 471.785156 1013.828125 C 471.691406 1013.9375 471.601562 1014.046875 471.507812 1014.160156 C 448.738281 992.164062 429.375 966.46875 413.449219 938.9375 C 445.003906 928.222656 440.085938 881.25 433.601562 855.78125 C 433.210938 854.242188 431.25 853.871094 430.324219 855.164062 C 414.886719 876.730469 401.542969 898.542969 405.847656 925.152344 C 399.753906 913.578125 394.226562 901.753906 389.300781 889.804688 C 386.609375 883.28125 384.089844 876.652344 381.738281 869.949219 C 411.410156 864.160156 416.648438 826.421875 411.78125 801.417969 C 411.507812 800.023438 409.839844 799.632812 408.808594 800.449219 C 394.203125 812.027344 376.839844 827.652344 374.46875 846.863281 C 371.34375 835.703125 368.730469 824.375 366.710938 812.949219 C 366.949219 812.679688 367.09375 812.304688 367.0625 811.8125 C 366.957031 810.101562 366.785156 808.398438 366.554688 806.710938 C 394.902344 801.660156 406.449219 776.421875 414.648438 751.527344 C 415.070312 750.257812 413.890625 748.863281 412.546875 749.199219 C 389.277344 754.996094 369.839844 769.425781 363.597656 791.132812 C 361.433594 771.164062 361.167969 751.054688 363.160156 731.179688 C 384.71875 726.273438 407.351562 710.996094 418.683594 692.421875 C 419.449219 691.171875 418.628906 689.808594 417.261719 689.613281 C 396.902344 686.703125 377.644531 694.605469 366.207031 709.886719 C 368.136719 699.515625 370.714844 689.246094 374.027344 679.140625 C 374.8125 676.742188 375.648438 674.359375 376.492188 671.980469 C 402.898438 667.253906 435.53125 659.933594 449.339844 634.410156 C 449.855469 633.453125 449.625 631.992188 448.394531 631.691406 C 428.011719 626.707031 401.328125 632.1875 386.113281 648.007812 C 390.800781 637.53125 396.019531 627.273438 401.726562 617.273438 C 402.078125 617.835938 402.710938 618.207031 403.554688 618.03125 C 428.128906 612.964844 455.730469 613.414062 471.375 590.335938 C 472 589.410156 471.574219 587.898438 470.429688 587.613281 C 452.738281 583.199219 431.996094 582.9375 417.136719 592.960938 C 417.191406 592.753906 417.230469 592.546875 417.28125 592.34375 C 423.882812 582.613281 430.910156 573.191406 438.304688 564.132812 C 439.011719 564.335938 439.890625 564.140625 440.417969 563.523438 C 451.140625 567.378906 462.339844 566.515625 473.222656 562.945312 C 479.109375 561.015625 484.605469 558.074219 489.8125 554.757812 C 493.316406 552.527344 498.386719 549.878906 499.722656 545.785156 C 500.023438 544.871094 499.515625 543.78125 498.566406 543.503906 C 482.925781 538.917969 466.554688 542.917969 451.558594 548.675781 C 463.15625 535.855469 475.878906 523.605469 489.636719 512.6875 C 503.929688 515.492188 522.984375 517.90625 534.085938 506.703125 C 534.902344 505.875 534.902344 504.523438 533.882812 503.839844 C 526.046875 498.589844 516.828125 497.863281 507.839844 499.480469 C 515.34375 494.539062 523.113281 490.035156 531.128906 486.070312 C 533.230469 490.617188 539.582031 492.667969 543.914062 494.039062 C 551.652344 496.484375 560.933594 497.835938 568.914062 495.933594 C 570.136719 495.640625 570.5625 494.4375 570.148438 493.34375 C 566.339844 483.382812 556.339844 480.859375 546.617188 479.230469 C 553.390625 476.597656 560.324219 474.363281 567.410156 472.589844 C 567.792969 472.496094 568.082031 472.3125 568.296875 472.078125 C 577.089844 477.125 589.1875 478.285156 598.066406 473.183594 C 598.972656 472.664062 599.53125 471.179688 598.601562 470.367188 C 592.71875 465.210938 585.890625 463.484375 578.660156 463.410156 C 589.898438 456.4375 604.628906 443.046875 591.386719 435.539062 C 574.597656 426.027344 567.484375 459.332031 565.679688 469.3125 C 558.03125 471.269531 550.574219 473.730469 543.300781 476.636719 C 552.058594 465.230469 556.03125 448.769531 551.050781 435.304688 C 550.71875 434.414062 549.402344 434.058594 548.617188 434.511719 C 533.433594 443.246094 532.769531 466.640625 530.980469 482.070312 C 519.003906 487.835938 507.574219 494.78125 496.714844 502.628906 C 496.234375 502.8125 495.753906 502.992188 495.28125 503.183594 C 503.667969 486.019531 507.085938 462.878906 495 447.140625 C 494.445312 446.414062 493.078125 446.292969 492.445312 446.988281 C 477.667969 463.179688 484.628906 490.617188 486.65625 510.277344 C 474.378906 520.074219 462.890625 530.964844 452.214844 542.503906 C 459.550781 523.433594 457.640625 498.9375 448.449219 481.96875 C 447.925781 481.003906 446.476562 480.574219 445.632812 481.433594 C 434.980469 492.347656 431.976562 505.71875 433.121094 520.609375 C 434.089844 533.242188 438.550781 546.089844 437.625 558.832031 C 436.859375 559.027344 436.394531 559.863281 436.421875 560.707031 C 431.019531 567.335938 425.859375 574.085938 420.960938 580.886719 C 420.070312 582.125 419.191406 583.371094 418.316406 584.617188 C 418.925781 568.648438 411.089844 551 404.351562 537.613281 C 403.769531 536.464844 401.910156 536.226562 401.226562 537.433594 C 388.890625 559.292969 388.730469 590.152344 400.375 612.535156 C 394.796875 622.101562 389.664062 631.894531 385.039062 641.898438 C 385.304688 620.453125 374.019531 598.605469 362.625 581.34375 C 361.929688 580.285156 360.269531 579.882812 359.503906 581.160156 C 342.90625 608.800781 351.941406 646.78125 374.109375 668.675781 C 374.097656 668.707031 374.085938 668.738281 374.078125 668.769531 C 373.011719 669.148438 372.804688 670.316406 373.21875 671.195312 C 368.023438 686.253906 364.042969 701.699219 361.488281 717.46875 C 361.375 717.6875 361.273438 717.914062 361.167969 718.136719 C 362.390625 693.632812 347.886719 670.496094 331.785156 652.707031 C 331.011719 651.851562 329.558594 651.914062 328.925781 652.910156 C 311.625 679.996094 328.671875 721.4375 358.226562 731.929688 C 358.605469 732.0625 358.945312 732.066406 359.25 731.984375 C 359.363281 731.972656 359.46875 731.945312 359.574219 731.90625 C 358.628906 740.910156 358.140625 750.003906 358.183594 759.1875 C 358.21875 767.171875 358.582031 775.152344 359.234375 783.113281 C 351.820312 767.867188 339.929688 754.488281 326.609375 744.757812 C 325.4375 743.902344 323.929688 744.878906 323.800781 746.179688 C 321.027344 774.738281 331.859375 807.464844 362.507812 815.078125 C 362.847656 815.164062 363.15625 815.148438 363.433594 815.074219 C 365.597656 827.046875 368.40625 838.917969 371.78125 850.628906 C 359.546875 833.007812 337.652344 827.292969 315.457031 823.875 C 314.363281 823.707031 313.261719 825.019531 313.601562 826.066406 C 323.035156 854.902344 349.183594 868.320312 377.925781 870.035156 C 383.890625 887.242188 391.0625 904.019531 399.21875 920.1875 C 383.542969 907.71875 356.476562 910.332031 338.359375 907.53125 C 337.054688 907.328125 335.976562 909.0625 336.660156 910.15625 C 351.824219 934.511719 381.351562 949.257812 409.511719 939.363281 L 409.527344 939.359375 C 421.785156 960.757812 436.214844 981.230469 452.734375 999.78125 C 443.167969 995.523438 431.570312 994.097656 421.964844 992.953125 C 408.558594 991.355469 390.371094 989.832031 378.246094 997.234375 C 377.207031 997.871094 376.964844 999.074219 377.710938 1000.050781 C 388.164062 1013.691406 406.460938 1021.265625 422.648438 1025.253906 C 437.964844 1029.03125 457.363281 1029.90625 469.589844 1018.1875 C 469.757812 1018.023438 469.878906 1017.847656 469.96875 1017.667969 C 486.925781 1033.914062 505.714844 1048.148438 526.277344 1059.503906 C 528.3125 1060.625 530.320312 1057.613281 528.277344 1056.484375 Z M 528.277344 1056.484375 " fill-opacity="1" fill-rule="nonzero"/></g></g></g></svg>